<svg title="This frog marks the end of the page" class="frog" width="269" height="269" viewBox="0 0 269 269" fill="#151515" xmlns="http://www.w3.org/2000/svg">
  <g class="fill" id="#frog">
    <path fill-rule="evenodd" clip-rule="evenodd" d="M222.387 113.122C225.105 99.9237 236.789 90 250.791 90C254.774 90 258.569 90.8027 262.023 92.2553C258.191 80.6612 252.824 69.7655 246.163 59.8087C252.133 53.4567 255.791 44.9055 255.791 35.5C255.791 15.8939 239.897 0 220.291 0C209.101 0 199.12 5.17774 192.613 13.2682C174.97 4.76519 155.187 0 134.291 0C113.679 0 94.1494 4.6367 76.6891 12.924C70.1779 5.03118 60.3221 0 49.2912 0C29.6851 0 13.7912 15.8939 13.7912 35.5C13.7912 44.5987 17.2142 52.8979 22.8427 59.1801C15.7832 69.6053 10.1481 81.0738 6.21683 93.306C10.2392 91.1946 14.8183 90 19.6764 90C33.5199 90 45.0978 99.6999 47.9844 112.674C75.0027 102.855 104.163 97.5 134.575 97.5C165.445 97.5 195.027 103.018 222.387 113.122ZM119.176 81C122.214 81 124.676 78.5376 124.676 75.5C124.676 72.4624 122.214 70 119.176 70C116.139 70 113.676 72.4624 113.676 75.5C113.676 78.5376 116.139 81 119.176 81ZM154.676 75.5C154.676 78.5376 152.214 81 149.176 81C146.139 81 143.676 78.5376 143.676 75.5C143.676 72.4624 146.139 70 149.176 70C152.214 70 154.676 72.4624 154.676 75.5ZM220.676 61C234.484 61 245.676 49.8071 245.676 36C245.676 22.1929 234.484 11 220.676 11C206.869 11 195.676 22.1929 195.676 36C195.676 49.8071 206.869 61 220.676 61ZM74.6764 36C74.6764 49.8071 63.4835 61 49.6764 61C35.8693 61 24.6764 49.8071 24.6764 36C24.6764 22.1929 35.8693 11 49.6764 11C63.4835 11 74.6764 22.1929 74.6764 36Z"/>
    <path d="M221.801 118.24C221.794 118.492 221.791 118.746 221.791 119C221.791 135.016 234.775 148 250.791 148C257.501 148 263.678 145.722 268.591 141.896C264.752 212.739 206.092 269 134.291 269C62.5453 269 3.91987 212.824 0 142.058C0.384535 141.81 0.769799 141.563 1.15579 141.317C6.17936 145.49 12.6348 148 19.6764 148C35.6926 148 48.6764 135.016 48.6764 119C48.6764 118.583 48.6676 118.168 48.6502 117.756C75.4274 107.888 104.372 102.5 134.575 102.5C165.268 102.5 194.661 108.065 221.801 118.24Z"/>
    <path d="M220.791 56C231.837 56 240.791 47.0457 240.791 36C240.791 24.9543 231.837 16 220.791 16C209.746 16 200.791 24.9543 200.791 36C200.791 47.0457 209.746 56 220.791 56Z"/>
    <path d="M49.7912 56C60.8369 56 69.7912 47.0457 69.7912 36C69.7912 24.9543 60.8369 16 49.7912 16C38.7455 16 29.7912 24.9543 29.7912 36C29.7912 47.0457 38.7455 56 49.7912 56Z"/>
  </g>
</svg>